<svg width="54" height="60" viewBox="0 0 54 60" fill="none" xmlns="http://www.w3.org/2000/svg">
<path d="M5.66286 54.0021L0.850006 0H53.7529L48.9336 53.9936L27.2693 60L5.66286 54.0021Z" fill="#1572B6"/>
<path d="M27.3014 55.41L44.8086 50.5564L48.9271 4.41638H27.3014V55.41Z" fill="#33A9DC"/>
<path d="M27.3014 23.9807H36.0657L36.67 17.1985H27.3014V10.575H27.325H43.9086L43.75 12.3514L42.1236 30.6042H27.3014V23.9807Z" fill="white"/>
<path d="M27.3421 41.1814L27.3121 41.19L19.9364 39.1971L19.465 33.915H15.88H12.8157L13.7435 44.3143L27.31 48.0814L27.3421 48.0728V41.1814Z" fill="#EBEBEB"/>
<path d="M35.5021 30.3235L34.705 39.1928L27.3186 41.1857V48.0771L40.8957 44.3143L40.9964 43.1957L42.1471 30.3235H35.5021Z" fill="white"/>
<path d="M27.325 10.575V14.6892V17.1814V17.1985H11.3479H11.3265L11.1936 15.7092L10.8915 12.3514L10.7329 10.575H27.325Z" fill="#EBEBEB"/>
<path d="M27.3015 23.9807V28.095V30.5871V30.6043H20.0393H20.0179L19.885 29.115L19.585 25.7571L19.4265 23.9807H27.3015Z" fill="#EBEBEB"/>
</svg>
