<svg width="71" height="60" viewBox="0 0 71 60" fill="none" xmlns="http://www.w3.org/2000/svg">
<path d="M6.72716 54.0021L0.307159 0H70.85L64.4214 53.9936L35.5357 60L6.72716 54.0021Z" fill="#E44F26"/>
<path d="M35.5785 55.41L58.9213 50.5564L64.4127 4.41638H35.5785V55.41Z" fill="#F1662A"/>
<path d="M35.5786 24.4436H23.8928L23.0871 17.6614H35.5786V11.0378H35.5471H13.4357L13.6471 12.8164L15.8157 31.0671H35.5786V24.4436Z" fill="#EBEBEB"/>
<path d="M35.5786 41.6444L35.5386 41.6529L25.7043 39.6622L25.0757 34.3801H20.2957H16.21L17.4471 44.7772L35.5386 48.5443L35.5786 48.5358V41.6444Z" fill="#EBEBEB"/>
<path d="M35.5471 24.4436V31.0672H46.4214L45.3985 39.6579L35.5471 41.6507V48.5422L53.6528 44.7772L53.7842 43.6586L55.8585 26.2222L56.0756 24.4436H53.6956H35.5471Z" fill="white"/>
<path d="M35.5471 11.0378V15.1521V17.6464V17.6614H56.8499H56.8785L57.0557 16.1743L57.4585 12.8164L57.6699 11.0378H35.5471Z" fill="white"/>
</svg>
