<svg width="58" height="60" viewBox="0 0 58 60" fill="none" xmlns="http://www.w3.org/2000/svg">
<path d="M19.1015 46.4023C19.1015 46.4023 16.1512 47.735 21.1998 48.1871C26.5274 48.7696 31.9472 48.591 37.1922 47.66C38.5452 48.2904 39.9649 48.8302 41.4357 49.2735C26.3229 54.3067 7.23127 48.9821 19.1015 46.4044" fill="#5382A1"/>
<path d="M17.2432 39.8327C17.2432 39.8327 13.9344 41.7354 18.9885 42.1425C25.8716 42.7787 32.8429 42.5187 39.616 41.3733C40.5316 42.0368 41.6127 42.5473 42.7924 42.8732C24.5197 47.0257 4.16524 43.201 17.2432 39.8284" fill="#5382A1"/>
<path d="M32.8135 28.6907C33.3032 29.15 33.6674 29.6819 33.8841 30.2541C34.1007 30.8262 34.1652 31.4267 34.0736 32.0188C33.982 32.611 33.7363 33.1825 33.3514 33.6985C32.9665 34.2145 32.4504 34.6642 31.8347 35.0202C31.8347 35.0202 41.2895 31.2276 36.9467 26.4773C32.8907 22.0483 29.7777 19.8456 46.6194 12.2584C46.6194 12.2584 20.1878 17.388 32.8135 28.6907Z" fill="#E76F00"/>
<path d="M52.8013 51.2596C52.8013 51.2596 54.9851 52.6567 50.397 53.7387C41.6728 55.7914 14.0887 56.4128 6.42342 53.8202C3.66611 52.8881 8.83331 51.596 10.4601 51.3261C11.3316 51.1606 12.2267 51.0829 13.1237 51.0947C10.0603 49.4169 -6.67656 54.388 4.62289 55.8086C35.4386 59.6911 60.7948 54.0623 52.8013 51.2596Z" fill="#5382A1"/>
<path d="M20.5105 33.0275C20.5105 33.0275 6.47856 35.618 15.5473 36.5587C21.7276 36.9315 27.9382 36.8798 34.1068 36.4044C39.9137 36.023 45.7454 35.2152 45.7454 35.2152C44.5196 35.6292 43.3393 36.1201 42.216 36.6829C27.9607 39.5927 0.434537 38.2385 8.34801 35.2581C12.1125 33.7737 16.2782 33.0083 20.4995 33.0254" fill="#5382A1"/>
<path d="M45.682 43.9617C60.1661 38.1121 53.4686 32.4918 48.795 33.2482C48.2327 33.3291 47.6795 33.4444 47.1406 33.5932C47.4475 33.2546 47.8791 32.9961 48.3787 32.8518C57.6267 30.3256 64.7378 40.3041 45.3925 44.2552C45.5133 44.1721 45.6125 44.0717 45.6848 43.9595" fill="#5382A1"/>
<path d="M36.9468 0.00428534C36.9468 0.00428534 44.9678 6.23953 29.3394 15.8302C16.8046 23.5225 26.48 27.9086 29.3394 32.9182C22.0242 27.7886 16.6557 23.2761 20.2568 19.07C25.5426 12.9012 40.1894 9.90997 36.955 0" fill="#E76F00"/>
<path d="M21.9333 59.8112C35.8357 60.5033 57.1883 59.4277 57.6929 54.3152C57.6929 54.3152 56.7195 56.2436 46.2032 57.7928C34.5742 59.3458 22.7058 59.4904 11.0199 58.2213C11.0199 58.2213 12.7984 59.3634 21.9361 59.8198" fill="#5382A1"/>
</svg>
