<svg width="61" height="60" viewBox="0 0 61 60" fill="none" xmlns="http://www.w3.org/2000/svg">
<path d="M0.752869 0H60.7529V60H0.752869V0Z" fill="#F5DE19"/>
<path d="M41.0579 46.875C41.5691 47.9134 42.3634 48.7863 43.3491 49.3929C44.3349 49.9995 45.472 50.3152 46.6293 50.3036C48.9651 50.3036 50.4586 49.1357 50.4586 47.5179C50.4586 45.5893 48.9243 44.8993 46.3529 43.7743L44.9429 43.17C40.8715 41.4364 38.1715 39.2657 38.1715 34.6757C38.1715 30.4479 41.3858 27.2272 46.4279 27.2272C48.0601 27.1093 49.6909 27.4746 51.1169 28.2775C52.5429 29.0804 53.7009 30.2854 54.4465 31.7422L50.0386 34.56C49.7515 33.8377 49.2516 33.2197 48.6053 32.788C47.9589 32.3564 47.1965 32.1313 46.4193 32.1429C46.0803 32.1089 45.7378 32.146 45.4138 32.2517C45.0899 32.3574 44.7915 32.5294 44.5377 32.7568C44.2839 32.9842 44.0802 33.262 43.9397 33.5725C43.7992 33.8829 43.7248 34.2192 43.7215 34.56C43.7215 36.2507 44.7693 36.9364 47.1886 37.9886L48.5986 38.5929C53.3901 40.6479 56.0986 42.7414 56.0986 47.4493C56.0986 52.5257 52.1108 55.3072 46.7558 55.3072C44.6693 55.4401 42.5889 54.9664 40.7657 53.9432C38.9424 52.92 37.4543 51.391 36.4808 49.5407L41.0579 46.875ZM21.14 47.3636C22.025 48.9343 22.8308 50.2629 24.7679 50.2629C26.6193 50.2629 27.7893 49.5386 27.7893 46.7207V27.5486H33.4272V46.7957C33.4272 52.6329 29.9986 55.29 25.0079 55.29C23.2438 55.3864 21.4918 54.9468 19.9822 54.0289C18.4727 53.111 17.2762 51.7578 16.55 50.1472L21.14 47.3636Z" fill="black"/>
</svg>
